<svg width="311" height="75" fill="none" xmlns="http://www.w3.org/2000/svg">
  <path stroke="#428FB4" stroke-width="2" d="M280 24v32"/>
  <path stroke="#D17375" stroke-width="2" d="M130 23v33"/>
  <path d="M27.96 42.477c0-.61-.187-1.016-.562-1.22-.359-.202-.89-.304-1.593-.304H14.93v-1.687h10.875c2.562 0 3.843 1.07 3.843 3.21 0 1.204-.351 2.07-1.054 2.602-.703.531-1.633.797-2.79.797H14.93v-1.688h10.875c1.437 0 2.156-.57 2.156-1.71ZM13.993 56h-1.687V27.312h13.5c1.062 0 1.968.329 2.718.985.75.64 1.125 1.445 1.125 2.414 0 1.281-.351 2.21-1.054 2.789-.703.563-1.633.844-2.79.844H14.93v-1.688h10.875c1.437 0 2.156-.648 2.156-1.945 0-.531-.203-.945-.61-1.242-.406-.313-.921-.469-1.546-.469H13.992v27Zm.938-19.969h10.875c1.547 0 2.851-.46 3.914-1.383 1.078-.937 1.617-2.25 1.617-3.937 0-1.36-.563-2.547-1.688-3.563-1.109-1.015-2.39-1.523-3.843-1.523H10.617V56H8.93V23.937h16.875c1.922 0 3.601.68 5.039 2.04 1.453 1.343 2.18 2.921 2.18 4.734 0 1.422-.337 2.664-1.008 3.727a6.653 6.653 0 0 1-2.672 2.46c2.453.875 3.68 2.657 3.68 5.344 0 2.125-.704 3.828-2.11 5.11-1.406 1.265-3.11 1.898-5.11 1.898H14.93v-1.688h10.875c1.547 0 2.851-.46 3.914-1.382 1.078-.938 1.617-2.25 1.617-3.938 0-1.14-.406-2.148-1.219-3.023-.812-.875-2.008-1.383-3.586-1.524a8.071 8.071 0 0 1-.726.024H14.93V36.03Zm21.468-5.32c0 2.187-.773 4.164-2.32 5.93 1.547 1.718 2.32 3.586 2.32 5.601 0 1.953-.492 3.735-1.476 5.344a10.24 10.24 0 0 1-3.89 3.727c-1.61.874-3.352 1.312-5.227 1.312H14.93v-1.688h10.875c2.437 0 4.53-.812 6.28-2.437 1.75-1.64 2.626-3.727 2.626-6.258 0-.906-.234-1.906-.703-3-.453-1.11-1.086-1.953-1.899-2.531 1.735-1.625 2.602-3.625 2.602-6 0-2.281-.89-4.258-2.672-5.93-1.781-1.687-3.86-2.531-6.234-2.531H7.242V56H5.555V20.562h20.25c1.86 0 3.601.461 5.226 1.383a10.427 10.427 0 0 1 3.914 3.727c.97 1.562 1.453 3.242 1.453 5.039ZM36 36.734c1.39-1.859 2.086-3.867 2.086-6.023 0-2.11-.563-4.07-1.688-5.883a12.109 12.109 0 0 0-4.5-4.336 12.1 12.1 0 0 0-6.093-1.617H3.867V56H2.18V17.187h23.625c2.468 0 4.773.61 6.914 1.829 2.156 1.218 3.867 2.875 5.133 4.968 1.28 2.078 1.921 4.32 1.921 6.727 0 2.297-.648 4.312-1.945 6.047 1.297 1.797 1.945 3.625 1.945 5.484 0 2.094-.375 4.016-1.125 5.766-.75 1.734-1.765 3.18-3.046 4.336-1.266 1.156-2.743 2.054-4.43 2.695-1.688.64-3.477.961-5.367.961H14.93v-1.688h10.875c1.64 0 3.21-.304 4.71-.914 1.5-.625 2.805-1.468 3.915-2.53 1.11-1.063 1.992-2.345 2.648-3.845a11.563 11.563 0 0 0 1.008-4.78c0-.75-.18-1.65-.54-2.696-.343-1.063-.858-2-1.546-2.813Zm20.46-2.367c-1.312 1.313-1.968 2.899-1.968 4.758 0 1.86.656 3.453 1.969 4.781 1.328 1.313 2.922 1.969 4.781 1.969 1.86 0 3.446-.656 4.758-1.969 1.328-1.328 1.992-2.922 1.992-4.781 0-1.86-.664-3.445-1.992-4.758-1.313-1.328-2.898-1.992-4.758-1.992-1.86 0-3.453.664-4.781 1.992Zm-1.194 10.735c-1.641-1.657-2.461-3.649-2.461-5.977 0-2.328.82-4.313 2.46-5.953 1.657-1.656 3.65-2.484 5.977-2.484 2.328 0 4.313.828 5.953 2.484 1.657 1.64 2.485 3.625 2.485 5.953 0 2.328-.828 4.32-2.485 5.977-1.64 1.64-3.625 2.46-5.953 2.46-2.328 0-4.32-.82-5.976-2.46ZM54.07 31.977c-1.968 1.984-2.953 4.367-2.953 7.148 0 2.781.985 5.164 2.953 7.148 1.985 1.985 4.375 2.977 7.172 2.977 2.797 0 5.18-.992 7.149-2.977 1.984-1.984 2.976-4.367 2.976-7.148 0-2.781-.992-5.164-2.976-7.148C66.42 29.992 64.039 29 61.242 29c-2.797 0-5.187.992-7.172 2.977ZM51 45.055c-1.047-1.813-1.57-3.79-1.57-5.93 0-2.14.523-4.117 1.57-5.93a11.707 11.707 0 0 1 4.313-4.289c1.812-1.062 3.789-1.593 5.93-1.593 2.14 0 4.116.53 5.929 1.593a11.53 11.53 0 0 1 4.289 4.29c1.062 1.812 1.594 3.788 1.594 5.929 0 2.14-.532 4.117-1.594 5.93a11.706 11.706 0 0 1-4.29 4.312c-1.812 1.047-3.788 1.57-5.929 1.57-2.14 0-4.117-.523-5.93-1.57A11.888 11.888 0 0 1 51 45.055Zm-2.203-11.157a13.24 13.24 0 0 0-1.055 5.227c0 1.828.352 3.578 1.055 5.25.719 1.656 1.68 3.094 2.883 4.313 1.218 1.203 2.656 2.164 4.312 2.882a13.409 13.409 0 0 0 5.25 1.055c1.828 0 3.57-.352 5.227-1.055 1.672-.718 3.11-1.68 4.312-2.883 1.219-1.218 2.18-2.656 2.883-4.312a13.157 13.157 0 0 0 1.078-5.25c0-1.828-.36-3.57-1.078-5.227-.703-1.671-1.664-3.109-2.883-4.312-1.203-1.219-2.64-2.18-4.312-2.883a12.992 12.992 0 0 0-5.227-1.078c-1.828 0-3.578.36-5.25 1.078-1.656.703-3.094 1.664-4.312 2.883-1.203 1.203-2.164 2.64-2.883 4.312ZM47.25 45.031a14.946 14.946 0 0 1-1.195-5.906c0-2.063.398-4.031 1.195-5.906.813-1.875 1.89-3.485 3.234-4.828 1.36-1.36 2.977-2.438 4.852-3.235a14.7 14.7 0 0 1 5.906-1.218 14.7 14.7 0 0 1 5.906 1.218c1.875.797 3.485 1.875 4.829 3.235 1.359 1.343 2.437 2.953 3.234 4.828a14.699 14.699 0 0 1 1.219 5.906c0 2.063-.407 4.031-1.22 5.906-.796 1.875-1.874 3.492-3.233 4.852-1.344 1.344-2.954 2.422-4.829 3.234a14.946 14.946 0 0 1-5.906 1.196c-2.062 0-4.031-.399-5.906-1.196-1.875-.812-3.492-1.89-4.852-3.234-1.343-1.36-2.422-2.977-3.234-4.852Zm-1.547-12.445a16.43 16.43 0 0 0-1.336 6.539c0 2.281.446 4.469 1.336 6.563.89 2.078 2.086 3.874 3.586 5.39 1.516 1.5 3.313 2.695 5.39 3.586A16.597 16.597 0 0 0 61.243 56c2.281 0 4.461-.445 6.54-1.336 2.093-.89 3.89-2.086 5.39-3.586 1.516-1.516 2.719-3.312 3.61-5.39a16.596 16.596 0 0 0 1.335-6.563c0-2.281-.445-4.46-1.336-6.54-.89-2.093-2.094-3.89-3.61-5.39-1.5-1.515-3.296-2.718-5.39-3.61a16.43 16.43 0 0 0-6.539-1.335c-2.281 0-4.469.445-6.562 1.336-2.078.89-3.875 2.094-5.39 3.61-1.5 1.5-2.696 3.296-3.587 5.39Zm-1.547 13.758a18.14 18.14 0 0 1-1.476-7.219c0-2.516.492-4.914 1.476-7.195.985-2.297 2.305-4.274 3.961-5.93 1.656-1.656 3.625-2.977 5.906-3.96a18.138 18.138 0 0 1 7.22-1.477c2.515 0 4.913.492 7.194 1.476 2.297.984 4.274 2.305 5.93 3.961 1.656 1.656 2.977 3.633 3.961 5.93a17.97 17.97 0 0 1 1.477 7.195c0 2.516-.493 4.922-1.477 7.219-.984 2.281-2.305 4.25-3.96 5.906-1.657 1.656-3.634 2.977-5.93 3.96a17.97 17.97 0 0 1-7.196 1.477c-2.515 0-4.922-.492-7.219-1.476-2.28-.984-4.25-2.305-5.906-3.961-1.656-1.656-2.976-3.625-3.96-5.906Zm55.852-11.977c-1.313 1.313-1.969 2.899-1.969 4.758 0 1.86.656 3.453 1.969 4.781 1.328 1.313 2.922 1.969 4.781 1.969 1.859 0 3.445-.656 4.758-1.969 1.328-1.328 1.992-2.922 1.992-4.781 0-1.86-.664-3.445-1.992-4.758-1.313-1.328-2.899-1.992-4.758-1.992s-3.453.664-4.781 1.992Zm-1.195 10.735c-1.641-1.657-2.461-3.649-2.461-5.977 0-2.328.82-4.313 2.46-5.953 1.657-1.656 3.649-2.484 5.977-2.484 2.328 0 4.313.828 5.953 2.484 1.656 1.64 2.485 3.625 2.485 5.953 0 2.328-.829 4.32-2.485 5.977-1.64 1.64-3.625 2.46-5.953 2.46-2.328 0-4.32-.82-5.977-2.46Zm-1.196-13.125c-1.969 1.984-2.953 4.367-2.953 7.148 0 2.781.984 5.164 2.953 7.148 1.985 1.985 4.375 2.977 7.172 2.977 2.797 0 5.18-.992 7.149-2.977 1.984-1.984 2.976-4.367 2.976-7.148 0-2.781-.992-5.164-2.976-7.148-1.969-1.985-4.352-2.977-7.149-2.977-2.797 0-5.187.992-7.172 2.977Zm-3.07 13.078c-1.047-1.813-1.57-3.79-1.57-5.93 0-2.14.523-4.117 1.57-5.93a11.707 11.707 0 0 1 4.312-4.289c1.813-1.062 3.789-1.593 5.93-1.593 2.141 0 4.117.53 5.93 1.593a11.534 11.534 0 0 1 4.289 4.29c1.062 1.812 1.594 3.788 1.594 5.929 0 2.14-.532 4.117-1.594 5.93a11.711 11.711 0 0 1-4.289 4.312c-1.813 1.047-3.789 1.57-5.93 1.57-2.141 0-4.117-.523-5.93-1.57a11.888 11.888 0 0 1-4.312-4.312Zm-2.203-11.157a13.237 13.237 0 0 0-1.055 5.227c0 1.828.352 3.578 1.055 5.25.719 1.656 1.68 3.094 2.883 4.313 1.218 1.203 2.656 2.164 4.312 2.882a13.409 13.409 0 0 0 5.25 1.055c1.828 0 3.57-.352 5.227-1.055 1.672-.718 3.109-1.68 4.312-2.883 1.219-1.218 2.18-2.656 2.883-4.312a13.152 13.152 0 0 0 1.078-5.25c0-1.828-.359-3.57-1.078-5.227-.703-1.671-1.664-3.109-2.883-4.312-1.203-1.219-2.64-2.18-4.312-2.883a12.996 12.996 0 0 0-5.227-1.078c-1.828 0-3.578.36-5.25 1.078-1.656.703-3.094 1.664-4.312 2.883-1.204 1.203-2.165 2.64-2.883 4.312Zm-1.547 11.133a14.946 14.946 0 0 1-1.195-5.906c0-2.063.398-4.031 1.195-5.906.812-1.875 1.89-3.485 3.234-4.828 1.36-1.36 2.977-2.438 4.852-3.235a14.703 14.703 0 0 1 5.906-1.218c2.063 0 4.031.406 5.906 1.218 1.875.797 3.485 1.875 4.828 3.235 1.36 1.343 2.438 2.953 3.235 4.828a14.707 14.707 0 0 1 1.219 5.906c0 2.063-.407 4.031-1.219 5.906-.797 1.875-1.875 3.492-3.235 4.852-1.343 1.344-2.953 2.422-4.828 3.234a14.943 14.943 0 0 1-5.906 1.196c-2.062 0-4.031-.399-5.906-1.196-1.875-.812-3.492-1.89-4.852-3.234-1.344-1.36-2.422-2.977-3.234-4.852ZM89.25 32.586a16.43 16.43 0 0 0-1.336 6.539c0 2.281.445 4.469 1.336 6.563.89 2.078 2.086 3.874 3.586 5.39 1.516 1.5 3.312 2.695 5.39 3.586A16.597 16.597 0 0 0 104.79 56a16.43 16.43 0 0 0 6.539-1.336c2.094-.89 3.891-2.086 5.391-3.586 1.515-1.516 2.719-3.312 3.609-5.39a16.59 16.59 0 0 0 1.336-6.563c0-2.281-.445-4.46-1.336-6.54-.89-2.093-2.094-3.89-3.609-5.39-1.5-1.515-3.297-2.718-5.391-3.61a16.43 16.43 0 0 0-6.539-1.335c-2.281 0-4.469.445-6.562 1.336-2.079.89-3.875 2.094-5.391 3.61-1.5 1.5-2.695 3.296-3.586 5.39Zm-1.547 13.758a18.14 18.14 0 0 1-1.476-7.219c0-2.516.492-4.914 1.476-7.195.984-2.297 2.305-4.274 3.961-5.93 1.656-1.656 3.625-2.977 5.906-3.96a18.136 18.136 0 0 1 7.219-1.477c2.516 0 4.914.492 7.195 1.476 2.297.984 4.274 2.305 5.93 3.961 1.656 1.656 2.977 3.633 3.961 5.93a17.978 17.978 0 0 1 1.477 7.195c0 2.516-.493 4.922-1.477 7.219-.984 2.281-2.305 4.25-3.961 5.906-1.656 1.656-3.633 2.977-5.93 3.96a17.967 17.967 0 0 1-7.195 1.477c-2.516 0-4.922-.492-7.219-1.476-2.28-.984-4.25-2.305-5.906-3.961-1.656-1.656-2.977-3.625-3.96-5.906ZM162.61 22.25h-1.875l-9.398 17.016L160.594 56h1.875l-9.258-16.734 9.398-17.016Zm-3.773 0h-1.875l-9.399 17.016L156.82 56h1.875l-9.257-16.734 9.398-17.016Zm-3.774 0h-1.874l-9.399 17.016L153.047 56h1.875l-9.258-16.734 9.398-17.016Zm-3.773 0h-1.875l-9.422 17.016L149.273 56h1.875l-9.281-16.734 9.422-17.016Zm-14.016 0h1.688V56h-1.688V22.25Zm-3.375 0h1.688V56h-1.688V22.25Zm-3.375 0h1.688V56h-1.688V22.25Zm-3.375 0h1.688V56h-1.688V22.25Zm72.985 8.203-1.383.914a8.987 8.987 0 0 0-3.305-2.953c-1.343-.734-2.804-1.102-4.383-1.102-2.562 0-4.75.907-6.562 2.72-1.812 1.812-2.719 4-2.719 6.562 0 2.562.907 4.75 2.719 6.562 1.812 1.813 4 2.719 6.562 2.719 1.579 0 3.04-.367 4.383-1.102a9.188 9.188 0 0 0 3.305-2.976l1.359.984a10.88 10.88 0 0 1-3.89 3.492 10.699 10.699 0 0 1-5.157 1.29c-1.484 0-2.906-.29-4.265-.868a11.06 11.06 0 0 1-3.492-2.343 11.056 11.056 0 0 1-2.344-3.493 10.792 10.792 0 0 1-.867-4.265c0-1.485.289-2.899.867-4.242.578-1.36 1.359-2.532 2.344-3.516a11.06 11.06 0 0 1 3.492-2.344 10.787 10.787 0 0 1 4.265-.867c1.86 0 3.586.438 5.18 1.313a10.797 10.797 0 0 1 3.891 3.515Zm2.789-1.922-1.406.914c-1.157-1.687-2.657-3.023-4.5-4.008-1.828-1-3.813-1.5-5.954-1.5-2.296 0-4.414.57-6.351 1.711a12.63 12.63 0 0 0-4.617 4.594c-1.125 1.938-1.688 4.055-1.688 6.352 0 2.297.563 4.414 1.688 6.351a12.813 12.813 0 0 0 4.617 4.617c1.937 1.126 4.055 1.688 6.351 1.688 2.141 0 4.133-.5 5.977-1.5 1.844-1 3.344-2.352 4.5-4.055l1.383.961a14.183 14.183 0 0 1-5.11 4.594c-2.078 1.125-4.328 1.688-6.75 1.688-2.593 0-4.992-.641-7.195-1.922a14.21 14.21 0 0 1-5.226-5.227c-1.282-2.203-1.922-4.602-1.922-7.195 0-2.594.64-4.992 1.922-7.196a14.21 14.21 0 0 1 5.226-5.226c2.203-1.281 4.602-1.922 7.195-1.922 2.422 0 4.672.563 6.75 1.688a14.184 14.184 0 0 1 5.11 4.593Zm2.812-1.875-1.406.914c-1.469-2.156-3.375-3.86-5.719-5.11-2.328-1.265-4.843-1.898-7.547-1.898-2.171 0-4.25.422-6.234 1.266-1.984.844-3.695 1.985-5.133 3.422-1.422 1.422-2.554 3.125-3.398 5.11a15.768 15.768 0 0 0-1.266 6.234c0 2.172.422 4.25 1.266 6.234.844 1.984 1.976 3.695 3.398 5.133 1.438 1.422 3.149 2.555 5.133 3.398a15.773 15.773 0 0 0 6.234 1.266c2.719 0 5.243-.633 7.571-1.898 2.328-1.266 4.226-2.977 5.695-5.133l1.36 1.008c-1.626 2.375-3.727 4.257-6.305 5.648-2.563 1.375-5.336 2.063-8.321 2.063-3.203 0-6.164-.79-8.882-2.368a17.833 17.833 0 0 1-6.469-6.468c-1.578-2.72-2.367-5.68-2.367-8.883 0-3.203.789-6.164 2.367-8.883a17.652 17.652 0 0 1 6.469-6.445c2.718-1.594 5.679-2.391 8.882-2.391 3 0 5.79.703 8.368 2.11 2.578 1.39 4.679 3.28 6.304 5.671Zm2.766-1.922-1.406.914c-1.782-2.609-4.086-4.671-6.914-6.187-2.813-1.516-5.852-2.273-9.118-2.273-2.624 0-5.14.515-7.546 1.546-2.391 1.016-4.454 2.391-6.188 4.125-1.734 1.735-3.117 3.805-4.148 6.211a19.04 19.04 0 0 0-1.524 7.524c0 2.625.508 5.14 1.524 7.547 1.031 2.39 2.414 4.453 4.148 6.187 1.734 1.734 3.797 3.117 6.188 4.149A19.214 19.214 0 0 0 191.062 56c3.266 0 6.313-.766 9.141-2.297 2.828-1.531 5.133-3.601 6.914-6.21l1.36 1.03c-1.938 2.813-4.438 5.047-7.5 6.704-3.063 1.64-6.368 2.46-9.915 2.46-2.859 0-5.593-.562-8.203-1.687-2.593-1.11-4.836-2.602-6.726-4.477-1.875-1.89-3.375-4.132-4.5-6.726a20.743 20.743 0 0 1-1.664-8.203c0-2.86.554-5.586 1.664-8.18 1.125-2.61 2.625-4.852 4.5-6.727 1.89-1.89 4.133-3.39 6.726-4.5a20.508 20.508 0 0 1 8.203-1.687c3.563 0 6.876.828 9.938 2.484 3.062 1.657 5.562 3.907 7.5 6.75Zm3.258-2.484h1.687V56h-1.687V22.25Zm10.125 0h1.687v25.313h12.446v1.687H223.57v1.688h12.446v1.687H223.57v1.688h12.446V56h-14.133V22.25Zm-3.375 0h1.687V56h-1.687V22.25Zm-3.375 0h1.687V56h-1.687V22.25Zm46.758 18.797V22.25h1.687v18.797c0 1.781-.687 3.312-2.062 4.594-1.36 1.28-3 1.922-4.922 1.922-1.922 0-3.571-.641-4.946-1.922-1.359-1.282-2.039-2.813-2.039-4.594V22.25h1.688v18.797c0 1.328.515 2.469 1.547 3.422 1.047.937 2.297 1.406 3.75 1.406 1.453 0 2.695-.469 3.726-1.406 1.047-.953 1.571-2.094 1.571-3.422Zm3.375 0V22.25h1.687v18.797c0 2.734-1.015 5.07-3.047 7.008-2.031 1.922-4.468 2.883-7.312 2.883-2.844 0-5.282-.961-7.313-2.883-2.031-1.938-3.047-4.274-3.047-7.008V22.25h1.688v18.797c0 2.266.844 4.203 2.531 5.812 1.703 1.594 3.75 2.391 6.141 2.391 2.375 0 4.414-.797 6.117-2.39 1.703-1.61 2.555-3.547 2.555-5.813Zm3.375 0V22.25h1.687v18.797c0 2.39-.617 4.61-1.851 6.656-1.235 2.031-2.907 3.64-5.016 4.828-2.109 1.188-4.399 1.782-6.867 1.782-2.469 0-4.758-.594-6.867-1.782-2.11-1.187-3.782-2.797-5.016-4.828a12.662 12.662 0 0 1-1.852-6.656V22.25h1.688v18.797c0 2.078.539 4.008 1.617 5.789 1.078 1.781 2.539 3.195 4.383 4.242 1.859 1.031 3.875 1.547 6.047 1.547 2.172 0 4.179-.516 6.023-1.547 1.86-1.047 3.328-2.46 4.406-4.242a10.972 10.972 0 0 0 1.618-5.79Zm3.375 0V22.25h1.687v18.797c0 2.25-.453 4.406-1.359 6.469-.906 2.047-2.125 3.812-3.656 5.297-1.532 1.484-3.352 2.664-5.461 3.539a16.887 16.887 0 0 1-6.633 1.336 16.88 16.88 0 0 1-6.633-1.336c-2.109-.875-3.93-2.055-5.461-3.54-1.531-1.484-2.75-3.25-3.656-5.296a15.916 15.916 0 0 1-1.36-6.47V22.25h1.688v18.797c0 2.687.687 5.18 2.062 7.476 1.391 2.297 3.266 4.118 5.625 5.461 2.375 1.344 4.953 2.016 7.735 2.016 2.781 0 5.351-.672 7.711-2.016 2.375-1.343 4.25-3.164 5.625-5.46a14.18 14.18 0 0 0 2.086-7.477Zm32.367-2.11-.047-.023c1.766-1.719 2.648-3.812 2.648-6.281 0-2.344-.875-4.375-2.625-6.094-1.734-1.734-3.789-2.602-6.164-2.602h-18.562V56h-1.688V22.25h20.25c1.844 0 3.571.477 5.18 1.43a10.543 10.543 0 0 1 3.867 3.82 9.831 9.831 0 0 1 1.43 5.133c0 2.5-.672 4.648-2.016 6.445 1.344 1.86 2.016 3.906 2.016 6.14 0 2.141-.484 4.032-1.453 5.673-.969 1.625-2.242 2.851-3.821 3.68-1.562.827-3.296 1.242-5.203 1.242h-10.664v-1.688h10.664c2.407 0 4.469-.852 6.188-2.555 1.734-1.718 2.601-3.836 2.601-6.351 0-1.157-.25-2.297-.75-3.422s-1.125-2.07-1.875-2.836c0-.016.008-.023.024-.023Zm-6.188 8.438h-10.664v1.688h10.664c1.032 0 1.907-.344 2.625-1.032.735-.703 1.102-1.64 1.102-2.812 0-1.016-.375-1.907-1.125-2.672-.75-.781-1.617-1.172-2.602-1.172h-10.687v1.688h10.687c.532 0 1 .218 1.407.656.421.437.632.937.632 1.5 0 .687-.195 1.218-.586 1.593-.39.376-.875.563-1.453.563Zm0 3.375h-10.664v1.688h10.664c1.938 0 3.602-.688 4.993-2.063 1.406-1.39 2.109-3.11 2.109-5.156 0-1.297-.352-2.516-1.055-3.657-.687-1.156-1.601-2.046-2.742-2.671a7 7 0 0 0 2.742-2.532c.703-1.109 1.055-2.351 1.055-3.726 0-1.875-.711-3.508-2.133-4.899-1.406-1.406-3.062-2.109-4.969-2.109H281.32V56h1.688V27.312h15.187c1.438 0 2.696.54 3.774 1.618 1.093 1.062 1.64 2.297 1.64 3.703 0 1.562-.531 2.851-1.593 3.867-1.063 1-2.336 1.5-3.821 1.5h-10.664v1.688h10.664c1.438 0 2.696.554 3.774 1.664 1.093 1.109 1.64 2.398 1.64 3.867 0 1.625-.531 2.953-1.593 3.984-1.063 1.031-2.336 1.547-3.821 1.547Zm0-16.125h-10.664v1.688h10.664c1.047 0 1.93-.329 2.649-.985.718-.672 1.078-1.57 1.078-2.695 0-.953-.375-1.797-1.125-2.531-.75-.735-1.617-1.102-2.602-1.102h-13.5v27h1.688V30.687h11.812c.532 0 1 .204 1.407.61.421.39.632.836.632 1.336 0 .64-.195 1.133-.586 1.476-.39.344-.875.516-1.453.516Z" fill="#000"/>
  <path d="M121 17c-1.389 3.483-4.264 6-8 6M124 19c-1.389 3.483-4.264 6-8 6M82 20c-1.389 3.483-4.264 6-8 6M79 18c-1.389 3.483-4.264 6-8 6M83 25c-1.215 2.322-3.73 4-7 4M125 23c-1.215 2.322-3.731 4-7 4" stroke="#000" stroke-width="2" stroke-linecap="round"/>
</svg>
